<svg role="img" class="mobile-qalogo-white" xmlns="http://www.w3.org/2000/svg" width="40" height="34.584" viewBox="0 0 40 34.584" aria-labelledby="mobile-white-title">
		<title id="mobile-white-title" class="sr-only">Qatar Airways Logo</title>
		<g id="Group_6568" data-name="Group 6568" transform="translate(-46.936 -50.099)">
		  <path id="Path_2607" data-name="Path 2607" d="M49.661,128.627c1.611,0,3.988-.025,6.687-.063.482-.55,1-1.112,1.575-1.7-3.336-.057-6.343-.088-8.262-.088-1.343,0-2.429.414-2.429.922s1.086.93,2.429.93m4.267,2.937c.4-.546.859-1.147,1.4-1.8-2.377-.034-4.451-.05-5.911-.05-1.37,0-2.477.422-2.477.943s1.106.942,2.477.942c1.163,0,2.729-.012,4.515-.035m.17,5.865c-.326-.321-1.427-1.59-1.563-1.709-.8-.005-1.525-.01-2.123-.01-1.266,0-2.29.387-2.29.875s1.024.871,2.29.871c.966,0,2.238-.013,3.686-.027m-1.989-2.9a1.712,1.712,0,0,1,.341-.715c-.027.035-.047.063-.016.007.179-.3.415-.674.7-1.109-1.354-.016-2.545-.024-3.475-.024-1.343,0-2.429.413-2.429.926s1.086.923,2.429.923c.69,0,1.518,0,2.448-.008m4.646,10.319c0,.235.407.431.91.431,2.579,0,10.432-.2,10.432-.431s-7.852-.427-10.432-.427c-.5,0-.91.192-.91.427m10.374-2.719c-4.394-.149-10.374-.242-13.074-.242-.88,0-1.594.27-1.594.61s.715.605,1.594.605c2.83,0,9.261-.107,13.7-.269-.206-.222-.412-.459-.621-.7m-2.316-3.163c-4.908-.128-10.3-.207-13.033-.207-1.12,0-2.03.347-2.03.773s.911.773,2.03.773c2.877,0,8.7-.088,13.805-.227-.259-.363-.516-.741-.773-1.113m9.752-14.309a1.666,1.666,0,0,1-.156.362,7.64,7.64,0,0,0,2.308-.289,6.8,6.8,0,0,0-2.093-.269Zm-16.9-7.769c2.579,0,10.432-.188,10.432-.424s-7.852-.427-10.432-.427c-.5,0-.91.186-.91.427s.407.424.91.424m15.651,4.653c-.346.179-.675.358-1,.537a11,11,0,0,0,2.776-.3,5.371,5.371,0,0,0-1.772-.239m-22.906,4.064c2.014,0,5.31-.04,8.893-.107.517-.494,1.065-.99,1.65-1.5-4.2-.082-8.22-.139-10.543-.139-1.266,0-2.29.393-2.29.872s1.024.875,2.29.875m21.608,1.63a10.5,10.5,0,0,0,1.8.847,15.151,15.151,0,0,0,3.787-.385c0-.166-2.284-.321-5.589-.462m-19.558-8.414c0,.335.715.606,1.594.606,2.718,0,8.744-.094,13.149-.247.33-.229.664-.466.984-.68-4.442-.172-11.212-.287-14.133-.287-.88,0-1.594.271-1.594.608m-.681,3.732c2.377,0,6.756-.065,11.085-.162.49-.389,1.006-.786,1.537-1.185-4.8-.124-9.961-.2-12.622-.2-1.12,0-2.03.344-2.03.772s.911.773,2.03.773m11,13.534a8.9,8.9,0,0,1-2.383.49,4.815,4.815,0,0,0-2.42.793c1.825-.03,3.762-.067,5.671-.112-.129-.19-.532-.784-.536-.784a2.281,2.281,0,0,0-.313-.391c-.009,0,0,0-.02,0" transform="translate(0 -60.599)" fill="#fff"></path>
		  <path id="Path_2608" data-name="Path 2608" d="M149.419,69.3c.019.472.014.943-.005,1.4-4.572.181-8.9.459-8.9.767s4.239.58,8.753.76c-.081.525-.18,1.04-.308,1.54-4.452.183-8.582.453-8.582.759,0,.29,3.854.552,8.127.733a16.371,16.371,0,0,1-.667,1.587c-3.667.181-6.7.417-6.7.672s2.648.463,5.986.635c-.189.312-.378.61-.584.892-.221.31-.455.617-.707.914-2.086.163-3.519.338-3.519.536,0,.17,1.025.326,2.606.465a15.149,15.149,0,0,1-3.083,2.351,24.355,24.355,0,0,1-2.586-2.651c-1.039-1.274-3.25-4.634-3.772-5.387s-.859-.97-1.47-.751a8.017,8.017,0,0,1-2.054.435c-.293,0-.45-.112.037-.308a6.877,6.877,0,0,0,3.364-3c1.06-2.125.123-5.058.123-5.058a3.7,3.7,0,0,1-1.168,2.157,4.642,4.642,0,0,0-.74-3.709l-.4,1.845s-.246-.01-.865.511a2.647,2.647,0,0,0-.789,1.285c.488.2,1.074-.3,1.074-.3a23.621,23.621,0,0,1-2.6,6.3,4.453,4.453,0,0,1-2.2,1.981c-.663.266-.878-.046-.878-.046a11.8,11.8,0,0,1-1.458-1.5s-.036-.067.085-.06c.323.005.893-.548,1.022-.779.14-.258.125-.46.055-.475s-.194.193-.813.589-.9.122-1.107-.1c-.156-.171,0-.388.1-.521s3.355-6.231,11.99-12.654c11.309-8.413,18.539-10.68,18.949-10.845.276-.111.72-.248.823-.146a.4.4,0,0,1,.149.351c-.012.138-.085.2-.605.438a97.947,97.947,0,0,0-12.3,6.988,58.86,58.86,0,0,0-7.048,4.269c-.272.172-.07.415.1.312,5.979-3.993,12.994-6.72,20.741-8.947.376-.106.573-.106.637-.023a.577.577,0,0,1,.11.308c.011.145-.1.218-.426.346Q145.417,58.83,139.5,62.831s-.411.247-.415.535c0,.108.217.123.217.123,1.98.032,4.618.149,5.877.223,0,0-.18.639-1.384,1.158a6.308,6.308,0,0,1-2.638.337.239.239,0,0,0-.2.4c.076.1,1.885,3.027,8.467,3.693" transform="translate(-71.392 0)" fill="#fff"></path>
		</g>
	  </svg>